# xmcd
#
# Track frame offsets: 
#        150
#        10962
#        23582
#        35257
#        45905
#        60800
#        72060
#        89825
#        99985
#        110067
#        123940
#        135017
#        152705
#        164230
#        180565
#        192557
#        203365
#
# Disc length: 2897 seconds
#
# Revision: 0
# Processed by: cddbd v1.5.1PL0 Copyright (c) Steve Scherf et al.
# Submitted via: ExactAudioCopy v0.95a5
#
DISCID=d10b4f11
DTITLE=Tony and Gary Williamson - Et Us Cross Over The River
DYEAR=1999
DGENRE=Gospel
TTITLE0=The Old Gospel Ship
TTITLE1=It's Different Now
TTITLE2=Let Us Cross Over The River
TTITLE3=When We All Get to Heaven
TTITLE4=If We Never Meet Again
TTITLE5=Beacon In The Night
TTITLE6=What Would You Give In Exchange
TTITLE7=Kneel At The Cross
TTITLE8=I Feel Like Traveling On
TTITLE9=If You See My Savior
TTITLE10=At Calvary
TTITLE11=When They Ring Those Golden Bells
TTITLE12=Lord Build Me A Cabin
TTITLE13=Sweet Hour of Prayer
TTITLE14=There Is Power in the Blood
TTITLE15=Gathering flowers For The Master's Bouquet
TTITLE16=Keep on the Sunny Side
EXTD=
EXTT0=
EXTT1=
EXTT2=
EXTT3=
EXTT4=
EXTT5=
EXTT6=
EXTT7=
EXTT8=
EXTT9=
EXTT10=
EXTT11=
EXTT12=
EXTT13=
EXTT14=
EXTT15=
EXTT16=
PLAYORDER=
